M48
METRIC,LZ,000.000
;FILE_FORMAT=3:3
;TYPE=PLATED
;Layer: PTH_Through
;EasyEDA v6.5.48, 2025-03-16 13:13:48
;8b95f2012f304591abdd523bd3906643,f607473da1f64ee3b819388b48db8319,10
;Gerber Generator version 0.2
;Holesize 1 = 0.306 mm
T01C0.306
;Holesize 2 = 0.901 mm
T02C0.901
;Holesize 3 = 0.915 mm
T03C0.915
;Holesize 4 = 1.000 mm
T04C1.000
;Holesize 5 = 1.051 mm
T05C1.051
;Holesize 6 = 1.101 mm
T06C1.101
%
G05
G90
T01
X037424Y057835
T02
X050673Y033528
X053213Y033528
T03
X005207Y016383
X007747Y016383
X010287Y016383
X012827Y016383
X015367Y016383
X017907Y016383
T04
X046922Y017383G85X046922Y017383
X046922Y019923G85X046922Y019923
X046922Y022463G85X046922Y022463
X046922Y025003G85X046922Y025003
X046922Y027543G85X046922Y027543
X046922Y030083G85X046922Y030083
X046922Y032623G85X046922Y032623
X046922Y035163G85X046922Y035163
X046922Y037703G85X046922Y037703
X046922Y040243G85X046922Y040243
X046922Y042783G85X046922Y042783
X046922Y045323G85X046922Y045323
X046922Y047863G85X046922Y047863
X046922Y050403G85X046922Y050403
X046922Y052943G85X046922Y052943
X022152Y052943G85X022152Y052943
X022152Y050403G85X022152Y050403
X022152Y047863G85X022152Y047863
X022152Y045323G85X022152Y045323
X022152Y042783G85X022152Y042783
X022152Y040243G85X022152Y040243
X022152Y037703G85X022152Y037703
X022152Y035163G85X022152Y035163
X022152Y032623G85X022152Y032623
X022152Y030083G85X022152Y030083
X022152Y027543G85X022152Y027543
X022152Y025003G85X022152Y025003
X022152Y022463G85X022152Y022463
X022152Y019923G85X022152Y019923
X022152Y017383G85X022152Y017383
X054229Y075819
X056769Y075819
X059309Y075819
X061849Y075819
X054229Y066040
X056769Y066040
X059309Y066040
X061849Y066040
X006985Y074549
X009525Y074549
X012065Y074549
X014605Y074549
X056134Y012573
X058674Y012573
X061214Y012573
X063754Y012573
X061722Y057404
X061722Y054864
X061722Y052324
X061722Y049784
X062103Y031750
X062103Y029210
X062103Y026670
X062103Y024130
X007747Y031750
X007747Y029210
X007747Y026670
X007747Y024130
X007747Y057277
X007747Y054737
X007747Y052197
X007747Y049657
X050508Y041148
X064808Y041148
T05
X026038Y065151G85X026032Y065151
X028578Y065151G85X028572Y065151
X031118Y065151G85X031112Y065151
X033658Y065151G85X033652Y065151
X036198Y065151G85X036192Y065151
X038738Y065151G85X038732Y065151
X041278Y065151G85X041272Y065151
X043818Y065151G85X043812Y065151
T06
X017018Y013462
X017018Y010922
X052578Y012954
X052578Y010414
M30
