G04 Layer: TopLayer*
G04 EasyEDA v6.5.48, 2025-03-16 13:13:48*
G04 8b95f2012f304591abdd523bd3906643,f607473da1f64ee3b819388b48db8319,10*
G04 Gerber Generator version 0.2*
G04 Scale: 100 percent, Rotated: No, Reflected: No *
G04 Dimensions in millimeters *
G04 leading zeros omitted , absolute positions ,4 integer and 5 decimal *
%FSLAX45Y45*%
%MOMM*%

%ADD10C,0.3000*%
%ADD11C,1.0000*%
%ADD12C,1.9304*%
%ADD13R,1.6000X1.6000*%
%ADD14C,1.6000*%
%ADD15R,1.7780X1.7780*%
%ADD16C,1.7780*%
%ADD17R,1.8000X1.8000*%
%ADD18C,1.8000*%
%ADD19R,1.5240X1.5240*%
%ADD20C,1.5240*%
%ADD21C,0.6100*%

%LPD*%
D10*
X6324549Y3725697D02*
G01*
X6413271Y3725697D01*
D11*
X6458711Y3734562D02*
G01*
X6457950Y3740150D01*
X6455409Y3742436D01*
D10*
X5321300Y3352800D02*
G01*
X5321300Y2875381D01*
X4692192Y2246274D01*
X5257800Y1041400D02*
G01*
X4862322Y1436878D01*
X4862322Y1761489D01*
X4758537Y1865274D01*
X4622825Y1865274D01*
X4565116Y1922983D01*
X4565116Y3135198D01*
X4692192Y3262274D01*
X774700Y1638300D02*
G01*
X917143Y1780743D01*
X917143Y2980232D01*
X2215184Y4278274D01*
X1028700Y1638300D02*
G01*
X1028700Y2837789D01*
X2215184Y4024274D01*
X1282700Y1638300D02*
G01*
X1282700Y2837789D01*
X2215184Y3770274D01*
X1536700Y1638300D02*
G01*
X1536700Y2837789D01*
X2215184Y3516274D01*
X1790700Y1638300D02*
G01*
X1790700Y2837789D01*
X2215184Y3262274D01*
X5067300Y3352800D02*
G01*
X5050790Y3369310D01*
X5050790Y4114800D01*
X5676900Y7581900D02*
G01*
X5676900Y6604000D01*
X4692192Y1992274D02*
G01*
X5132425Y1992274D01*
X5867400Y1257300D01*
X6480809Y4114800D02*
G01*
X6458737Y4114800D01*
X5676900Y6604000D02*
G01*
X6458737Y5822162D01*
X6458737Y4114800D01*
X4692192Y4278274D02*
G01*
X3365500Y5604967D01*
X3365500Y6515100D01*
X6184900Y7581900D02*
G01*
X6184900Y6604000D01*
X6184900Y6604000D02*
G01*
X6592900Y6195999D01*
X6592900Y1474800D01*
X6375400Y1257300D01*
X6172200Y5486400D02*
G01*
X5422900Y6235700D01*
X5422900Y6604000D01*
X5422900Y6604000D02*
G01*
X5422900Y7581900D01*
X2215184Y1738274D02*
G01*
X2603500Y2126589D01*
X2603500Y6515100D01*
X6210300Y2667000D02*
G01*
X6324549Y2781249D01*
X6324549Y5080050D01*
X6172200Y5232400D01*
X774700Y5219700D02*
G01*
X649071Y5094071D01*
X649071Y2792628D01*
X774700Y2667000D01*
X5930900Y6604000D02*
G01*
X5930900Y7581900D01*
X6121400Y1257300D02*
G01*
X5864758Y1513941D01*
X5864758Y3867708D01*
X4692192Y5040274D01*
X3111500Y6515100D02*
G01*
X3232962Y6636562D01*
X3426561Y6636562D01*
X3492500Y6570624D01*
X3492500Y6033414D01*
X3742385Y5783529D01*
X3742385Y5783529D02*
G01*
X3948938Y5783529D01*
X4692192Y5040274D01*
X6458737Y4114800D02*
G01*
X6458737Y2008327D01*
X6248400Y1797989D01*
X6248400Y1219072D01*
X6168390Y1139062D01*
X5985636Y1139062D01*
X5867400Y1257300D01*
D12*
G01*
X4692192Y1738274D03*
G01*
X4692192Y1992274D03*
G01*
X4692192Y2246274D03*
G01*
X4692192Y2500274D03*
G01*
X4692192Y2754274D03*
G01*
X4692192Y3008274D03*
G01*
X4692192Y3262274D03*
G01*
X4692192Y3516274D03*
G01*
X4692192Y3770274D03*
G01*
X4692192Y4024274D03*
G01*
X4692192Y4278274D03*
G01*
X4692192Y4532274D03*
G01*
X4692192Y4786274D03*
G01*
X4692192Y5040274D03*
G01*
X4692192Y5294274D03*
G01*
X2215184Y5294274D03*
G01*
X2215184Y5040274D03*
G01*
X2215184Y4786274D03*
G01*
X2215184Y4532274D03*
G01*
X2215184Y4278274D03*
G01*
X2215184Y4024274D03*
G01*
X2215184Y3770274D03*
G01*
X2215184Y3516274D03*
G01*
X2215184Y3262274D03*
G01*
X2215184Y3008274D03*
G01*
X2215184Y2754274D03*
G01*
X2215184Y2500274D03*
G01*
X2215184Y2246274D03*
G01*
X2215184Y1992274D03*
G01*
X2215184Y1738274D03*
D13*
G01*
X5422900Y7581900D03*
D14*
G01*
X5676900Y7581900D03*
G01*
X5930900Y7581900D03*
G01*
X6184900Y7581900D03*
D13*
G01*
X5422900Y6604000D03*
D14*
G01*
X5676900Y6604000D03*
G01*
X5930900Y6604000D03*
G01*
X6184900Y6604000D03*
D13*
G01*
X698500Y7454900D03*
D14*
G01*
X952500Y7454900D03*
G01*
X1206500Y7454900D03*
G01*
X1460500Y7454900D03*
D13*
G01*
X5613400Y1257300D03*
D14*
G01*
X5867400Y1257300D03*
G01*
X6121400Y1257300D03*
G01*
X6375400Y1257300D03*
D13*
G01*
X6172200Y5740400D03*
D14*
G01*
X6172200Y5486400D03*
G01*
X6172200Y5232400D03*
G01*
X6172200Y4978400D03*
D13*
G01*
X6210300Y3175000D03*
D14*
G01*
X6210300Y2921000D03*
G01*
X6210300Y2667000D03*
G01*
X6210300Y2413000D03*
D13*
G01*
X774700Y3175000D03*
D14*
G01*
X774700Y2921000D03*
G01*
X774700Y2667000D03*
G01*
X774700Y2413000D03*
D13*
G01*
X774700Y5727700D03*
D14*
G01*
X774700Y5473700D03*
G01*
X774700Y5219700D03*
G01*
X774700Y4965700D03*
D15*
G01*
X2603500Y6515100D03*
D16*
G01*
X2857500Y6515100D03*
G01*
X3111500Y6515100D03*
G01*
X3365500Y6515100D03*
G01*
X3619500Y6515100D03*
G01*
X3873500Y6515100D03*
G01*
X4127500Y6515100D03*
G01*
X4381500Y6515100D03*
D17*
G01*
X1701800Y1346200D03*
D18*
G01*
X1701800Y1092200D03*
D17*
G01*
X5257800Y1295400D03*
D18*
G01*
X5257800Y1041400D03*
D19*
G01*
X520700Y1638300D03*
D20*
G01*
X774700Y1638300D03*
G01*
X1028700Y1638300D03*
G01*
X1282700Y1638300D03*
G01*
X1536700Y1638300D03*
G01*
X1790700Y1638300D03*
D14*
G01*
X5050790Y4114800D03*
G01*
X6480809Y4114800D03*
D20*
G01*
X5067300Y3352800D03*
G01*
X5321300Y3352800D03*
D21*
G01*
X3742385Y5783529D03*
M02*
